<?xml version="1.0" encoding="UTF-8"?>
<svg version="1.1" xmlns="http://www.w3.org/2000/svg" width="512" height="512">
<path d="M0 0 C0.92481171 0.00215515 1.84962341 0.0043103 2.80245972 0.00653076 C16.50677431 0.05773197 29.86333717 0.45509407 43.3125 3.3125 C44.29879395 3.51649414 45.28508789 3.72048828 46.30126953 3.93066406 C82.08761555 11.50117052 115.87447541 26.04502534 144.3125 49.3125 C145.30894531 50.10527344 146.30539062 50.89804688 147.33203125 51.71484375 C162.26913514 63.79190302 176.13277683 77.67393783 187.3125 93.3125 C187.7652832 93.93688965 188.21806641 94.5612793 188.68457031 95.20458984 C195.63828626 104.83963182 201.81522729 114.77974513 207.3125 125.3125 C207.68084961 126.01117188 208.04919922 126.70984375 208.42871094 127.4296875 C219.48225737 148.67397102 226.44148047 171.72371715 230.3125 195.3125 C230.58852051 196.93998169 230.58852051 196.93998169 230.87011719 198.6003418 C232.55284632 209.60632015 232.7109688 220.51039171 232.6875 231.625 C232.68668427 233.08007462 232.68668427 233.08007462 232.68585205 234.56454468 C232.645758 250.14878224 231.77096342 265.0618004 228.3125 280.3125 C228.09287598 281.29895508 227.87325195 282.28541016 227.64697266 283.30175781 C219.88282446 317.27059304 205.14459175 349.07001204 183.3125 376.3125 C182.54292969 377.28574219 181.77335937 378.25898438 180.98046875 379.26171875 C168.8873844 394.22370449 154.97470949 408.11587179 139.3125 419.3125 C138.68811035 419.7652832 138.0637207 420.21806641 137.42041016 420.68457031 C127.78536818 427.63828626 117.84525487 433.81522729 107.3125 439.3125 C106.61382812 439.68084961 105.91515625 440.04919922 105.1953125 440.42871094 C72.94245653 457.21009313 37.16940379 464.76849368 1 464.6875 C-0.37788193 464.68668427 -0.37788193 464.68668427 -1.78359985 464.68585205 C-53.30654049 464.546225 -103.33208569 447.65327259 -143.6875 415.3125 C-144.66074219 414.54292969 -145.63398438 413.77335937 -146.63671875 412.98046875 C-161.59870449 400.8873844 -175.49087179 386.97470949 -186.6875 371.3125 C-187.1402832 370.68811035 -187.59306641 370.0637207 -188.05957031 369.42041016 C-195.01328626 359.78536818 -201.19022729 349.84525487 -206.6875 339.3125 C-207.05584961 338.61382812 -207.42419922 337.91515625 -207.80371094 337.1953125 C-224.17439479 305.73179522 -232.08543763 270.78793881 -232.00317383 235.46020508 C-232.00002306 232.64559787 -232.02354324 229.83205585 -232.04882812 227.01757812 C-232.10932872 209.94552049 -230.07612519 193.32725608 -225.9375 176.75 C-225.54908936 175.18088867 -225.54908936 175.18088867 -225.15283203 173.58007812 C-217.223603 142.43190525 -202.80038276 113.40972718 -182.6875 88.3125 C-181.91792969 87.33925781 -181.14835937 86.36601563 -180.35546875 85.36328125 C-168.2623844 70.40129551 -154.34970949 56.50912821 -138.6875 45.3125 C-138.06311035 44.8597168 -137.4387207 44.40693359 -136.79541016 43.94042969 C-127.16036818 36.98671374 -117.22025487 30.80977271 -106.6875 25.3125 C-105.98882812 24.94415039 -105.29015625 24.57580078 -104.5703125 24.19628906 C-72.05912745 7.28049648 -36.41802474 -0.15321831 0 0 Z M-152.6875 80.3125 C-153.36425781 80.94800781 -154.04101562 81.58351563 -154.73828125 82.23828125 C-186.18060967 112.52411024 -204.78983672 155.06652846 -212.6875 197.3125 C-212.82027344 198.00504883 -212.95304687 198.69759766 -213.08984375 199.41113281 C-215.28791504 211.2844224 -214.89122567 223.28798436 -214.6875 235.3125 C-207.14478225 233.30386398 -207.14478225 233.30386398 -199.66796875 231.06640625 C-143.89201682 213.54666852 -83.24495622 220.25823527 -30.75 244.8125 C-30.04198242 245.14354736 -29.33396484 245.47459473 -28.60449219 245.81567383 C-21.42862928 249.27622796 -14.5743978 253.31725366 -7.6875 257.3125 C-7.66223437 249.49797248 -7.64466895 241.68345542 -7.63256836 233.86889648 C-7.62752617 231.20808519 -7.62069264 228.54727668 -7.61206055 225.88647461 C-7.59998991 222.07144484 -7.59427071 218.25645156 -7.58984375 214.44140625 C-7.58468246 213.24350967 -7.57952118 212.0456131 -7.57420349 210.81141663 C-7.57412796 209.7103508 -7.57405243 208.60928497 -7.57397461 207.47485352 C-7.571754 206.50000504 -7.56953339 205.52515656 -7.56724548 204.52076721 C-7.43968415 202.33777884 -7.43968415 202.33777884 -8.6875 201.3125 C-10.40791715 201.11612484 -12.12933232 200.92635916 -13.85375977 200.76904297 C-33.32596509 198.9481647 -52.78204849 193.7511883 -67.890625 180.7578125 C-69.6369671 179.22821747 -69.6369671 179.22821747 -71.796875 178.3671875 C-74.19054268 177.03187702 -74.60005228 175.78481703 -75.6875 173.3125 C-76.54207507 172.21298303 -77.41903955 171.13065942 -78.3125 170.0625 C-92.04351402 151.99006243 -99.41092769 124.91341291 -96.6875 102.3125 C-95.22111793 98.57930896 -95.22111793 98.57930896 -92.6875 97.3125 C-67.51122892 95.00260421 -40.79490414 100.79720172 -20.7109375 116.6640625 C-14.99654796 121.63912402 -10.45534457 126.73069556 -6.6875 133.3125 C-4.36889096 130.99389096 -3.98956194 129.06991036 -3.19287109 125.95581055 C1.59808558 107.34605408 11.08617787 90.51768979 27.55078125 79.89453125 C44.64418333 70.10269554 62.85134362 65.16651666 82.5625 65.0625 C83.55507813 65.041875 84.54765625 65.02125 85.5703125 65 C86.52164062 64.99484375 87.47296875 64.9896875 88.453125 64.984375 C89.74524902 64.97035645 89.74524902 64.97035645 91.06347656 64.95605469 C93.8170593 65.39246706 94.65031329 66.11129541 96.3125 68.3125 C101.85871402 84.95114207 93.92498814 110.85341316 86.4375 125.9375 C83.3327266 131.90614666 79.8417735 137.31016905 75.3125 142.3125 C74.73242188 142.98410156 74.15234375 143.65570313 73.5546875 144.34765625 C58.11886466 161.10747226 33.27083447 167.94551276 11.1484375 169.13671875 C9.29522749 169.11760773 9.29522749 169.11760773 8.3125 170.3125 C8.21735408 173.02088086 8.18695068 175.70368513 8.19897461 178.41235352 C8.19875557 179.68541351 8.19875557 179.68541351 8.1985321 180.98419189 C8.19923152 183.80328891 8.20702522 186.62232071 8.21484375 189.44140625 C8.21670783 191.39053817 8.21813178 193.33967055 8.21913147 195.2888031 C8.22295745 200.42956832 8.23278841 205.57030547 8.24383545 210.71105957 C8.25404785 215.95255148 8.25862872 221.1940479 8.26367188 226.43554688 C8.27441061 236.72787694 8.29148799 247.02018614 8.3125 257.3125 C9.26171829 256.76658707 10.21093658 256.22067413 11.18891907 255.65821838 C12.4531406 254.93297278 13.71739937 254.2077921 14.98168945 253.48266602 C15.60507454 253.1239164 16.22845963 252.76516678 16.87073517 252.39554596 C71.60901115 221.0298781 136.93481765 213.77729781 197.63378906 230.11767578 C203.55122177 231.76630826 209.4350161 233.52726451 215.3125 235.3125 C217.09577946 187.58919809 201.64455417 140.09201554 172.3125 102.3125 C171.53261719 101.30316406 170.75273437 100.29382813 169.94921875 99.25390625 C164.40390452 92.30995148 158.39918503 85.7807662 152.3125 79.3125 C151.69632812 78.65378906 151.08015625 77.99507812 150.4453125 77.31640625 C112.34569945 37.84958221 56.01396209 17.58857134 2.06738281 16.34863281 C-56.75039987 15.5771837 -110.6746423 40.15400291 -152.6875 80.3125 Z M63.6875 82.9375 C62.51779663 83.20373169 62.51779663 83.20373169 61.32446289 83.4753418 C50.03392234 86.19277303 40.00741083 90.44033342 31.3125 98.3125 C30.44625 99.09625 29.58 99.88 28.6875 100.6875 C27.90375 101.55375 27.12 102.42 26.3125 103.3125 C25.76980469 103.91191406 25.22710937 104.51132813 24.66796875 105.12890625 C17.12831747 114.04836299 13.49146625 124.46651074 10.9375 135.6875 C10.68577026 136.79242798 10.68577026 136.79242798 10.42895508 137.91967773 C9.40941897 142.8016766 9.1662071 147.32728819 9.3125 152.3125 C27.0364166 153.43782804 45.82184931 146.68052321 59.3671875 135.1953125 C72.10945347 122.8624366 79.27645584 105.64727492 80.55078125 88.015625 C80.56025484 85.77985879 80.45416942 83.54379336 80.3125 81.3125 C74.51086468 81.14224885 69.34002724 81.64971544 63.6875 82.9375 Z M-79.6875 113.3125 C-80.82495557 131.22742517 -74.22025591 149.72107364 -62.6875 163.3125 C-48.67937331 178.69667057 -28.59848666 183.34725976 -8.6875 185.3125 C-8.50933573 179.47267113 -9.05748991 174.30803743 -10.375 168.625 C-10.64509888 167.4503418 -10.64509888 167.4503418 -10.9206543 166.25195312 C-14.15905861 152.71733212 -19.15375417 140.79287125 -29.6875 131.3125 C-30.13996094 130.85617188 -30.59242188 130.39984375 -31.05859375 129.9296875 C-42.08794253 119.42292632 -60.94276281 112.98931488 -76.0625 113.25 C-77.856875 113.2809375 -77.856875 113.2809375 -79.6875 113.3125 Z M-213.6875 253.3125 C-213.708125 254.488125 -213.72875 255.66375 -213.75 256.875 C-213.76160156 257.53628906 -213.77320313 258.19757813 -213.78515625 258.87890625 C-213.6573967 262.06267422 -213.15224419 265.16220978 -212.6875 268.3125 C-211.82511719 268.24321289 -210.96273437 268.17392578 -210.07421875 268.10253906 C-185.55352986 266.28355449 -159.87789759 265.4726811 -135.6875 270.3125 C-134.69186035 270.51117676 -133.6962207 270.70985352 -132.67041016 270.91455078 C-91.68191335 279.39427234 -53.73475557 297.85856682 -22.91015625 326.27734375 C-20.89885309 328.11897634 -18.83930328 329.8733619 -16.75 331.625 C-1.88990563 344.67216286 10.21075539 361.40325227 20.3125 378.3125 C20.70501953 378.96202637 21.09753906 379.61155273 21.50195312 380.28076172 C33.12807666 399.70523198 40.91954951 420.66291185 47.3125 442.3125 C54.95089142 441.13018091 62.07886626 439.28301708 69.375 436.75 C70.31021484 436.43353516 71.24542969 436.11707031 72.20898438 435.79101562 C76.84476579 434.2566019 76.84476579 434.2566019 81.3125 432.3125 C77.81947067 378.40736093 49.62172344 326.45788447 9.3984375 290.90234375 C-7.13475567 276.87268579 -25.03890933 265.45845727 -44.6875 256.3125 C-45.82316406 255.78011719 -46.95882812 255.24773437 -48.12890625 254.69921875 C-98.58151374 232.07446893 -163.089835 229.62209001 -213.6875 253.3125 Z M16.3125 272.3125 C15.96432185 275.53330605 15.96432185 275.53330605 18.734375 277.80859375 C19.83738883 278.79621328 20.94727187 279.77619402 22.0625 280.75 C23.25836542 281.82345789 24.45233022 282.89903633 25.64453125 283.9765625 C26.25506348 284.52731445 26.8655957 285.07806641 27.49462891 285.64550781 C34.53048411 292.09740404 41.26648028 298.92292034 47.3125 306.3125 C53.24655786 303.11537495 59.12082157 299.84402695 64.9375 296.4375 C79.07284955 288.30421936 93.78719087 282.25773652 109.3125 277.3125 C110.06112305 277.07402344 110.80974609 276.83554687 111.58105469 276.58984375 C124.24601387 272.64085871 137.19101466 270.19905761 150.3125 268.3125 C151.05604736 268.20502441 151.79959473 268.09754883 152.56567383 267.98681641 C160.50280941 267.02064564 168.49582716 267.16195358 176.47827148 267.18212891 C178.97711358 267.18745125 181.475773 267.1821778 183.97460938 267.17578125 C193.79787916 267.17213693 203.52050402 267.5059166 213.3125 268.3125 C213.90318022 264.4754041 214.44316971 260.7606737 214.375 256.875 C214.3440625 255.1115625 214.3440625 255.1115625 214.3125 253.3125 C154.28188194 228.74263891 68.9763879 229.75750961 16.3125 272.3125 Z M-208.6875 285.3125 C-207.45710277 290.34406855 -206.12171462 295.33521307 -204.6875 300.3125 C-204.34847656 301.49972656 -204.00945312 302.68695313 -203.66015625 303.91015625 C-203.29792969 304.97105469 -202.93570313 306.03195312 -202.5625 307.125 C-202.25054687 308.08019531 -201.93859375 309.03539062 -201.6171875 310.01953125 C-198.46379402 313.76657978 -194.36570795 313.65621038 -189.6875 314.3125 C-187.77156185 314.66173722 -185.8574974 315.0213899 -183.9453125 315.390625 C-182.95241211 315.57850586 -181.95951172 315.76638672 -180.93652344 315.95996094 C-148.77658232 322.16273795 -117.36447456 333.91814477 -90.6875 353.3125 C-89.73230469 353.99570312 -88.77710938 354.67890625 -87.79296875 355.3828125 C-61.56596695 374.56324108 -39.87069778 398.03188225 -23.375 426.0625 C-22.96040527 426.76197754 -22.54581055 427.46145508 -22.11865234 428.18212891 C-20.2056358 431.46962049 -18.45616153 434.731875 -16.96875 438.234375 C-14.36961968 444.56555987 -14.36961968 444.56555987 -9.0703125 448.3671875 C-5.51874876 448.73770687 -2.25083066 448.58063181 1.3125 448.3125 C2.98155231 448.24916091 4.65085724 448.19226413 6.3203125 448.140625 C14.038091 447.86369671 21.65818625 447.35186596 29.3125 446.3125 C30.59240959 442.47277124 29.58417384 440.06917245 28.375 436.375 C28.14901123 435.67479736 27.92302246 434.97459473 27.69018555 434.25317383 C20.47396958 412.42286563 10.76133504 391.99907961 -2.6875 373.3125 C-3.08936523 372.75369141 -3.49123047 372.19488281 -3.90527344 371.61914062 C-10.2194823 362.93901144 -17.26439693 355.05236797 -24.6875 347.3125 C-26.03134766 345.889375 -26.03134766 345.889375 -27.40234375 344.4375 C-63.57367518 307.04452302 -117.9010424 284.10332297 -169.73046875 283 C-172.84128702 282.95575031 -175.95138761 282.93972614 -179.0625 282.9375 C-179.79826263 282.93550598 -180.53402527 282.93351196 -181.29208374 282.93145752 C-190.57307867 282.93431669 -199.54160191 283.59480269 -208.6875 285.3125 Z M139.3125 286.3125 C138.46558594 286.48410645 137.61867188 286.65571289 136.74609375 286.83251953 C108.74765725 292.60023869 82.11638794 303.44324137 58.3125 319.3125 C59.84233696 323.58799171 62.04625749 327.29193431 64.4375 331.125 C68.19080235 337.24381619 71.52952127 343.48673654 74.66064453 349.94458008 C76.39132159 353.51141874 78.2119751 356.94908283 80.3125 360.3125 C84.90668301 357.8551463 89.12092341 355.07363734 93.375 352.0625 C100.09570149 347.34461801 107.08281797 343.19932212 114.3125 339.3125 C114.91900391 338.9839502 115.52550781 338.65540039 116.15039062 338.31689453 C139.10868672 326.00235299 163.82046248 318.39475182 189.54614258 314.60449219 C190.50286865 314.46172852 191.45959473 314.31896484 192.4453125 314.171875 C193.28980957 314.05295898 194.13430664 313.93404297 195.00439453 313.81152344 C197.47958925 313.2763745 199.21447289 312.74064956 201.3125 311.3125 C202.48025127 309.21515518 202.48025127 309.21515518 203.19921875 306.69921875 C203.49763672 305.78076172 203.79605469 304.86230469 204.10351562 303.91601562 C204.54727539 302.47258789 204.54727539 302.47258789 205 301 C205.46116211 299.57397461 205.46116211 299.57397461 205.93164062 298.11914062 C207.28905702 293.86867484 208.49532271 289.70329605 209.3125 285.3125 C203.70645835 282.50947917 196.02761501 283.14713364 189.859375 283.109375 C189.08530807 283.10236069 188.31124115 283.09534637 187.51371765 283.08811951 C185.02991843 283.07072267 182.54635792 283.06426719 180.0625 283.0625 C179.21213165 283.06182526 178.36176331 283.06115051 177.48562622 283.06045532 C164.52994254 283.07678403 152.02318552 283.61174282 139.3125 286.3125 Z M-190.6875 331.3125 C-168.8175156 379.90390901 -122.20714141 416.85946719 -73.23046875 435.44921875 C-53.38714276 442.58965959 -53.38714276 442.58965959 -32.6875 445.3125 C-34.06778144 440.63092686 -36.04074827 436.58976637 -38.5625 432.4375 C-38.95397217 431.79111572 -39.34544434 431.14473145 -39.7487793 430.47875977 C-52.46967054 409.9090712 -68.72822738 391.28168441 -87.6875 376.3125 C-88.62851563 375.54292969 -89.56953125 374.77335937 -90.5390625 373.98046875 C-110.28129708 358.19178244 -132.13065131 346.96206585 -156 338.9375 C-157.23935303 338.52024658 -158.47870605 338.10299316 -159.75561523 337.6730957 C-174.91358698 332.70759735 -174.91358698 332.70759735 -190.6875 331.3125 Z M101.3125 366.3125 C100.66442383 366.77108398 100.01634766 367.22966797 99.34863281 367.70214844 C92.37379983 372.03384561 92.37379983 372.03384561 87.59887695 378.17260742 C87.25979533 380.70632476 87.64477458 382.30041794 88.38671875 384.7421875 C88.64050293 385.61020996 88.89428711 386.47823242 89.15576172 387.37255859 C89.43436035 388.30148926 89.71295898 389.23041992 90 390.1875 C93.2407152 401.44203281 95.43179895 412.76155154 97.3125 424.3125 C137.28855364 406.01928568 172.60749563 371.15056219 191.3125 331.3125 C161.799202 329.22980599 124.47218926 349.83417378 101.3125 366.3125 Z " fill="#000000" transform="translate(255.6875,23.6875)"/>
</svg>
