<?xml version="1.0" encoding="UTF-8"?>
<svg version="1.1" xmlns="http://www.w3.org/2000/svg" width="512" height="512">
<path d="M0 0 C10.21780368 7.46327737 17.49129377 17.53641837 20 30.0625 C20.06790675 32.31157152 20.08499984 34.56251605 20.0625 36.8125 C20.05347656 37.98296875 20.04445313 39.1534375 20.03515625 40.359375 C20.02355469 41.25140625 20.01195313 42.1434375 20 43.0625 C20.71579483 43.06098112 21.43158967 43.05946224 22.16907525 43.05789733 C64.56453813 42.96844354 106.95999008 42.8997834 149.35552831 42.85823868 C154.44258544 42.85323567 159.52964238 42.8480584 164.61669922 42.84277344 C165.62946838 42.8417242 166.64223755 42.84067495 167.68569669 42.83959392 C184.09830152 42.82217438 200.51085048 42.79062818 216.92342213 42.75388882 C233.75610267 42.71652245 250.5887539 42.69427327 267.42147422 42.68614602 C277.8136145 42.6806493 288.20559689 42.66326976 298.59768859 42.63083413 C305.71766129 42.60973935 312.83755201 42.6032885 319.95755371 42.60849449 C324.06944872 42.61106415 328.18106722 42.60704221 332.29291344 42.5856781 C336.05456325 42.56627561 339.81574948 42.56518844 343.5774202 42.57890442 C345.58863779 42.58140655 347.59984958 42.56409803 349.61098886 42.54617476 C351.3942418 42.55812106 351.3942418 42.55812106 353.21352005 42.57030869 C354.75594403 42.56803036 354.75594403 42.56803036 356.32952809 42.56570601 C359.73673661 43.19955679 360.91576711 44.33750853 363 47.0625 C363.5625 50.5625 363.5625 50.5625 363 54.0625 C360.14783664 57.13075186 358.50097478 58.00082728 354.3112793 58.51660156 C352.89876764 58.51561154 351.48614199 58.49390373 350.07421875 58.453125 C349.41087524 58.44909668 348.74753174 58.44506836 348.06408691 58.44091797 C345.60494003 58.42011467 343.14618992 58.36426913 340.6875 58.3125 C335.180625 58.23 329.67375 58.1475 324 58.0625 C324 69.9425 324 81.8225 324 94.0625 C335.33876326 93.90439632 335.33876326 93.90439632 346.67675781 93.70214844 C348.10220135 93.69046189 349.52765827 93.68026997 350.953125 93.671875 C351.68837402 93.65141113 352.42362305 93.63094727 353.18115234 93.60986328 C356.65966175 93.60749534 358.62631661 93.78950885 361.47167969 95.86816406 C363.70877245 99.08014325 363.54545976 101.24428167 363 105.0625 C361.47167969 107.25683594 361.47167969 107.25683594 359 109.0625 C356.18328175 109.41130799 353.75990945 109.53124501 350.953125 109.453125 C350.26911621 109.44909668 349.58510742 109.44506836 348.88037109 109.44091797 C346.33663937 109.42006309 343.79329144 109.3642171 341.25 109.3125 C332.71125 109.18875 332.71125 109.18875 324 109.0625 C324 120.9425 324 132.8225 324 145.0625 C334.96463326 144.90451632 334.96463326 144.90451632 345.9284668 144.70214844 C347.31037151 144.69045813 348.69229007 144.68026711 350.07421875 144.671875 C350.78276001 144.65141113 351.49130127 144.63094727 352.22131348 144.60986328 C355.81780329 144.60734252 357.8637155 144.97936926 360.96020508 146.86816406 C363 149.0625 363 149.0625 363.5625 152.5625 C362.90007096 156.6842807 362.32830491 157.62718707 359 160.0625 C356.18328175 160.41130799 353.75990945 160.53124501 350.953125 160.453125 C350.26911621 160.44909668 349.58510742 160.44506836 348.88037109 160.44091797 C346.33663937 160.42006309 343.79329144 160.3642171 341.25 160.3125 C332.71125 160.18875 332.71125 160.18875 324 160.0625 C324 172.2725 324 184.4825 324 197.0625 C335.71273256 196.94384038 335.71273256 196.94384038 347.42504883 196.79223633 C348.89403633 196.78347403 350.36303111 196.77582948 351.83203125 196.76953125 C352.59398804 196.75418335 353.35594482 196.73883545 354.14099121 196.72302246 C359.51377658 196.72035607 359.51377658 196.72035607 361.9855957 198.4597168 C363.88166882 201.45555795 363.53313549 204.65754131 363 208.0625 C361.18836733 210.73681489 360.12238923 211.02170359 357 212.0625 C354.48658383 212.14717279 352.001081 212.17859535 349.48828125 212.16015625 C348.84258179 212.15914917 348.19688232 212.15814209 347.53161621 212.15710449 C345.12522601 212.15188211 342.71886118 212.13792083 340.3125 212.125 C334.929375 212.104375 329.54625 212.08375 324 212.0625 C324 223.9425 324 235.8225 324 248.0625 C335.33876326 247.90439632 335.33876326 247.90439632 346.67675781 247.70214844 C348.10220135 247.69046189 349.52765827 247.68026997 350.953125 247.671875 C351.68837402 247.65141113 352.42362305 247.63094727 353.18115234 247.60986328 C356.65855807 247.60749609 358.624731 247.78791655 361.46777344 249.86816406 C363.72842095 253.10568793 363.6183068 255.21525769 363 259.0625 C360.14783664 262.13075186 358.50097478 263.00082728 354.3112793 263.51660156 C352.89876764 263.51561154 351.48614199 263.49390373 350.07421875 263.453125 C349.41087524 263.44909668 348.74753174 263.44506836 348.06408691 263.44091797 C345.60494003 263.42011467 343.14618992 263.36426913 340.6875 263.3125 C335.180625 263.23 329.67375 263.1475 324 263.0625 C324 274.9425 324 286.8225 324 299.0625 C334.96463326 298.90451632 334.96463326 298.90451632 345.9284668 298.70214844 C347.31037151 298.69045813 348.69229007 298.68026711 350.07421875 298.671875 C350.78276001 298.65141113 351.49130127 298.63094727 352.22131348 298.60986328 C355.81780329 298.60734252 357.8637155 298.97936926 360.96020508 300.86816406 C363 303.0625 363 303.0625 363.5625 306.5625 C362.90007096 310.6842807 362.32830491 311.62718707 359 314.0625 C356.17982573 314.41173596 353.76279737 314.53099209 350.953125 314.453125 C350.18192322 314.44746521 349.41072144 314.44180542 348.6161499 314.43597412 C346.16012721 314.41363589 343.70557945 314.36344763 341.25 314.3125 C339.58205237 314.29243154 337.91408179 314.27418137 336.24609375 314.2578125 C332.1630413 314.21718511 328.08316545 314.13890019 324 314.0625 C324 322.3125 324 330.5625 324 339.0625 C325.65 339.7225 327.3 340.3825 329 341.0625 C330.06234612 342.38435051 331.08109242 343.74199341 332.0625 345.125 C335.88082255 349.22343115 339.1204638 349.57460892 344.46069336 349.83178711 C346.25816655 349.86027245 348.05614082 349.86680753 349.85375977 349.84985352 C354.77893953 349.81562157 357.96906824 349.85552624 362 353.0625 C363 354.0625 363 354.0625 363.25 357.375 C363 361.0625 363 361.0625 361.875 363.4375 C359.38432213 365.59608748 357.21131983 365.61865905 354 366.0625 C354.96824707 366.9757605 354.96824707 366.9757605 355.95605469 367.9074707 C358.37869489 370.20967581 360.78386516 372.52768364 363.1796875 374.85766602 C364.21303884 375.8561546 365.25262812 376.8482342 366.29882812 377.83325195 C374.04734997 385.14016742 379.12061143 391.77613755 380.4375 402.6875 C379.35094173 411.06952092 376.61571651 417.55354809 370 423.0625 C363.72912452 426.79766912 357.21906577 428.16332062 350 427.0625 C335.95408577 423.42453594 324.49401067 407.804587 314.60229492 397.95996094 C312.90099294 396.27027026 311.19521019 394.58507989 309.48510742 392.90429688 C306.99194165 390.45373508 304.51223392 387.99024793 302.03515625 385.5234375 C301.27268082 384.77847015 300.51020538 384.03350281 299.72462463 383.26596069 C295.59621612 379.12049931 292.61840051 375.74443339 291 370.0625 C291.44154358 367.35726929 291.44154358 367.35726929 292 365.0625 C291.31437082 365.06401888 290.62874163 365.06553776 289.9223358 365.06710267 C249.27167916 365.15664667 208.62103397 365.22526225 167.97029851 365.26676132 C163.08753934 365.27176405 158.20478036 365.27694135 153.32202148 365.28222656 C152.34996648 365.2832758 151.37791148 365.28432505 150.37640027 365.28540608 C134.644275 365.30280357 118.9122083 365.33433766 103.18011775 365.37111118 C87.0333211 365.40853884 70.88655508 365.43073972 54.73971683 365.43885398 C44.77906152 365.44433796 34.81857176 365.46164851 24.85796741 365.49416587 C18.02434769 365.51533627 11.19081334 365.52169432 4.35716321 365.51650551 C0.41654347 365.51394766 -3.52378732 365.51782353 -7.46435547 365.5393219 C-11.07772623 365.55889049 -14.69061569 365.55970403 -18.30400934 365.54609558 C-20.21859245 365.5436244 -22.13317049 365.56078383 -24.04767019 365.57882524 C-37.42736994 365.48676512 -48.05278814 360.86223277 -57.75 351.6875 C-68.2241206 340.63148381 -70.15193577 328.06696247 -70.14044189 313.33627319 C-70.14341302 312.14721614 -70.14638414 310.9581591 -70.1494453 309.73307002 C-70.15660966 306.4405179 -70.15930337 303.14801798 -70.16004276 299.85546184 C-70.161898 296.30110643 -70.16944772 292.74676223 -70.17617798 289.19241333 C-70.18974311 281.42361718 -70.19578326 273.6548262 -70.20018864 265.88602018 C-70.2029543 261.03179662 -70.20719225 256.17757504 -70.21169281 251.32335281 C-70.2238834 237.87398339 -70.23418293 224.42461554 -70.2375679 210.97524071 C-70.23778747 210.11492769 -70.23800703 209.25461468 -70.23823325 208.36823157 C-70.23856067 207.07473552 -70.23856067 207.07473552 -70.2388947 205.75510824 C-70.23933816 204.00780002 -70.23978472 202.26049181 -70.24023438 200.51318359 C-70.2404558 199.64646481 -70.24067723 198.77974604 -70.24090537 197.88676305 C-70.24485149 183.84993181 -70.26230077 169.81315254 -70.2855939 155.77634136 C-70.30933516 141.35261312 -70.32177102 126.92891093 -70.32293582 112.50516284 C-70.32385105 104.41177261 -70.32956499 96.3184501 -70.34775543 88.22507858 C-70.36319396 81.33198028 -70.36825485 74.43897062 -70.36001733 67.54585831 C-70.35612398 64.03245086 -70.35697556 60.51922173 -70.37107468 57.00583649 C-70.38380965 53.18728174 -70.37790828 49.36918063 -70.36749268 45.55062866 C-70.37554908 44.45351858 -70.38360548 43.35640849 -70.39190602 42.22605264 C-70.30482692 28.51844854 -66.74713382 15.78223371 -57.125 5.6875 C-41.53627147 -8.77718359 -18.22242796 -11.67562851 0 0 Z M20 58.0625 C20 66.9725 20 75.8825 20 85.0625 C24.00818878 85.06796844 24.00818878 85.06796844 28.09735107 85.07354736 C53.23135836 85.10973222 78.36524572 85.16788085 103.49915695 85.24640274 C116.42196618 85.28624428 129.34471407 85.31861077 142.26757812 85.33349609 C153.52865347 85.34648611 164.78959412 85.37338283 176.05059361 85.41711307 C182.01548636 85.43978753 187.98021261 85.4554071 193.94515228 85.45438385 C199.55614308 85.45364077 205.16676497 85.47144949 210.77766037 85.50366783 C212.84003646 85.51220711 214.90245374 85.51388964 216.96483994 85.50830269 C219.7752337 85.50170181 222.58444022 85.51948909 225.39471436 85.54351807 C226.62623171 85.53187744 226.62623171 85.53187744 227.8826282 85.52000165 C231.46863652 85.57448872 233.57602386 85.7480043 236.49705887 87.91476059 C238.45048592 90.70625532 238.64019524 92.80718556 238.9375 96.1875 C240.40367651 107.29565081 245.17824612 115.10952887 254 122.0625 C260.75808809 126.27346675 267.49352097 127.75561582 275.34765625 128.60546875 C278 129.0625 278 129.0625 280 131.0625 C280.25168228 133.58314514 280.25168228 133.58314514 280.25396729 136.83227539 C280.25960693 138.06060089 280.26524658 139.28892639 280.27105713 140.55447388 C280.26716818 141.92303525 280.26307182 143.29159605 280.25878906 144.66015625 C280.2614979 146.09561338 280.26505823 147.53106912 280.26940918 148.96652222 C280.27854821 152.87140671 280.27498273 156.77618584 280.26865101 160.68107224 C280.26359882 164.76142416 280.26828028 168.84176687 280.27142334 172.92211914 C280.27506527 179.7752444 280.27025795 186.62832659 280.26074219 193.48144531 C280.24985719 201.41241818 280.25338261 209.34328824 280.264395 217.27425861 C280.27346142 224.07513213 280.27475632 230.87597463 280.26951766 237.67685223 C280.2663944 241.74244053 280.26599834 245.80798045 280.27259064 249.87356567 C280.27835413 253.6951798 280.27438563 257.51666094 280.26280212 261.33826065 C280.26015017 262.74356998 280.26092971 264.14889045 280.26532745 265.5541954 C280.27076304 267.4670345 280.2627497 269.37989795 280.25396729 271.29272461 C280.25283621 272.90104408 280.25283621 272.90104408 280.25168228 274.54185486 C280 277.0625 280 277.0625 278 279.0625 C275.63891427 279.58782714 273.26000709 280.03446699 270.875 280.4375 C264.98239489 281.49897083 260.164964 283.00568457 255 286.0625 C260.24501271 292.41770247 266.00479465 298.21342415 271.83203125 304.02734375 C272.87495772 305.0709449 273.91773579 306.11469437 274.96037292 307.15858459 C277.13138689 309.33106386 279.30417701 311.50174625 281.47827148 313.67114258 C284.27052921 316.45766082 287.05821587 319.24870245 289.84462452 322.04106808 C291.98999631 324.19004077 294.13772829 326.3366418 296.28619957 328.48251534 C297.31603157 329.51167896 298.34511768 330.5415895 299.37345314 331.57224846 C300.80230231 333.00362097 302.23467696 334.43147164 303.66723633 335.85913086 C304.48186844 336.67296738 305.29650055 337.48680389 306.13581848 338.32530212 C307.69724037 340.17612512 307.69724037 340.17612512 309 340.0625 C309 247.0025 309 153.9425 309 58.0625 C213.63 58.0625 118.26 58.0625 20 58.0625 Z M20 100.0625 C20 168.7025 20 237.3425 20 308.0625 C87.65 308.0625 155.3 308.0625 225 308.0625 C226.98 301.6275 226.98 301.6275 229 295.0625 C229.33 294.0725 229.66 293.0825 230 292.0625 C223.07 285.1325 216.14 278.2025 209 271.0625 C204.9712035 272.76396521 204.9712035 272.76396521 202.6875 275.6875 C200 278.0625 200 278.0625 196.6875 278.8125 C192.15032408 277.88968456 190.15604641 276.05523755 186.89453125 272.88671875 C185.03006335 271.0914476 183.08128173 269.59557855 181 268.0625 C180.07662842 268.99634521 179.15325684 269.93019043 178.2019043 270.89233398 C174.77972645 274.35067044 171.35096782 277.80241769 167.92016602 281.25219727 C166.43528348 282.7471468 164.95219968 284.24388517 163.47094727 285.74243164 C161.34339501 287.89420109 159.20948939 290.03948674 157.07421875 292.18359375 C156.41161545 292.85651962 155.74901215 293.5294455 155.06632996 294.22276306 C154.44591324 294.84333084 153.82549652 295.46389862 153.1862793 296.10327148 C152.64222946 296.65176254 152.09817963 297.2002536 151.53764343 297.7653656 C148.23110709 300.55471321 144.37037401 300.41017261 140.2578125 300.32421875 C136.68900523 299.91053348 134.57199871 298.40122441 132 296.0625 C130.73542969 294.95068359 130.73542969 294.95068359 129.4453125 293.81640625 C122.27854547 287.1470494 122.27854547 287.1470494 121.08203125 282.48828125 C121.00302326 279.18875691 121.17754213 277.74258511 123 275.0625 C122.02417969 274.53140625 121.04835938 274.0003125 120.04296875 273.453125 C118.75755439 272.74004842 117.47241232 272.02648083 116.1875 271.3125 C115.54490234 270.96445312 114.90230469 270.61640625 114.24023438 270.2578125 C110.72215275 268.28914506 107.95441941 266.6491048 106 263.0625 C105.18391421 259.91643015 105.35374686 257.23458017 106 254.0625 C107.27290058 252.17312431 107.27290058 252.17312431 108.9712677 250.34249878 C109.6092309 249.65039181 110.2471941 248.95828484 110.90448952 248.24520493 C114.59391201 244.40226512 118.31665506 240.59849743 122.0847168 236.83251953 C122.96688873 235.94698898 123.84906067 235.06145844 124.75796509 234.14909363 C127.15457041 231.74467129 129.5533841 229.34250059 131.95357871 226.94166422 C133.45526207 225.43926631 134.95622962 223.93615702 136.45694923 222.43279648 C141.69803179 217.18249671 146.94165593 211.93475115 152.18774414 206.68945312 C157.07128588 201.8065142 161.94919835 196.91800088 166.82455891 192.02689469 C171.0215858 187.81679828 175.22245291 183.61056007 179.42633945 179.40731323 C181.9326291 176.90127833 184.4373467 174.39372045 186.93820763 171.882267 C189.72105313 169.08795284 192.51186039 166.30167642 195.3034668 163.51611328 C196.12900558 162.68495499 196.95454437 161.85379669 197.80509949 160.99745178 C198.56617004 160.24057571 199.3272406 159.48369965 200.1113739 158.70388794 C201.09880349 157.7156412 201.09880349 157.7156412 202.10618114 156.70742989 C205.19986059 154.02032718 207.33983545 153.12251496 211.4375 152.75 C215.39262946 153.09694118 216.86172257 153.69417263 220 156.0625 C222.01953125 159.19921875 222.01953125 159.19921875 223.8125 162.75 C224.12380859 163.35650391 224.43511719 163.96300781 224.75585938 164.58789062 C225.51608584 166.07325619 226.25975462 167.56707634 227 169.0625 C230.12237616 169.12140887 230.12237616 169.12140887 233.6875 168.625 C238.46722694 168.625 240.78466944 170.82168054 244.10546875 174.05078125 C252.93950888 183.43125685 252.93950888 183.43125685 253.42578125 191.83203125 C252.2226595 198.13462317 246.42800809 202.90096051 242.046875 207.2109375 C241.38665344 207.86832916 240.72643188 208.52572083 240.04620361 209.20303345 C237.95214738 211.28596262 235.85121935 213.36179958 233.75 215.4375 C232.32245579 216.85500476 230.89536753 218.27296886 229.46875 219.69140625 C225.98442016 223.15377494 222.49391332 226.60980344 219 230.0625 C220.50524538 233.22585762 222.12894177 235.40741232 224.5625 237.9375 C226.75882389 240.4239044 228.00352799 242.07131997 229.25 245.1875 C228.88117603 249.42897563 226.94063563 251.05014155 224 254.0625 C225.45745424 257.42585594 227.31117854 259.60784005 229.9140625 262.171875 C230.67460937 262.92597656 231.43515625 263.68007813 232.21875 264.45703125 C233.0128125 265.23433594 233.806875 266.01164063 234.625 266.8125 C235.42679688 267.60527344 236.22859375 268.39804687 237.0546875 269.21484375 C239.03202846 271.16864493 241.01388909 273.11762103 243 275.0625 C247.68181062 273.19707182 252.3237087 271.24549812 256.96484375 269.28125 C259.93171595 268.08991908 262.96694214 267.07351929 266 266.0625 C266 225.1425 266 184.2225 266 142.0625 C262.04 140.7425 258.08 139.4225 254 138.0625 C242.05872649 132.41460037 232.99978514 123.96747972 228.0078125 111.60546875 C226.66806853 107.75848962 225.80311512 104.07807561 225 100.0625 C157.35 100.0625 89.7 100.0625 20 100.0625 Z M208.51824093 171.42121124 C207.8775948 172.06277916 207.23694868 172.70434708 206.57688904 173.36535645 C205.84348297 174.09738785 205.1100769 174.82941925 204.35444641 175.58363342 C203.54452744 176.39714767 202.73460846 177.21066193 201.90014648 178.04882812 C201.05143982 178.89738876 200.20273315 179.7459494 199.32830811 180.620224 C196.99398242 182.95512883 194.66190436 185.2922376 192.33077502 187.63033104 C189.89686156 190.07047683 187.46013413 192.50780917 185.0236969 194.94543457 C180.40702542 199.56521972 175.79290993 204.18754908 171.17969519 208.81078577 C165.92901616 214.07262481 160.67551249 219.33163977 155.4217633 224.59041309 C144.61135079 235.41129081 133.80451162 246.23573012 123 257.0625 C126.12816519 260.25308613 128.93344788 262.13623847 133 264.0625 C136.15286658 262.97677085 138.19020767 261.12012187 140.51812744 258.78488159 C141.19675842 258.10899994 141.8753894 257.43311829 142.57458496 256.73675537 C143.30826294 255.99588684 144.04194092 255.25501831 144.79785156 254.49169922 C145.57872131 253.71112152 146.35959106 252.93054382 147.16412354 252.12631226 C149.74439273 249.54464955 152.31750522 246.95597442 154.890625 244.3671875 C156.67809165 242.57599081 158.46600032 240.78523512 160.2543335 238.99490356 C164.47948631 234.76289428 168.7001546 230.52646242 172.91868377 226.28785431 C177.72246886 221.46170285 182.53194442 216.64123937 187.34190416 211.82124305 C197.23427709 201.90797349 207.11928631 191.98738931 217 182.0625 C215.02 178.1025 213.04 174.1425 211 170.0625 C209.78777459 169.94985976 209.78777459 169.94985976 208.51824093 171.42121124 Z M-47 300.0625 C-52.41399779 307.24645861 -55.31696676 314.55477614 -54.875 323.62890625 C-53.63027181 331.91412827 -49.67705159 339.29826526 -43.0625 344.5 C-41.72765316 345.38405428 -40.3743239 346.2411585 -39 347.0625 C-37.96875 347.68125 -36.9375 348.3 -35.875 348.9375 C-28.97427017 351.58066945 -19.92187483 351.23763014 -13.125 348.5 C-5.29957735 344.37598769 0.45323376 338.41070911 4.25 330.4375 C6.24437054 321.46283256 5.61012421 313.09303894 1 305.0625 C-3.99966356 298.06539216 -9.65567355 293.46111272 -18 291.0625 C-29.0864253 289.85256018 -39.08299748 291.78563373 -47 300.0625 Z M241 304.0625 C239.31668789 308.63149001 238.40797021 313.09880737 237.66015625 317.890625 C237 320.0625 237 320.0625 234 322.0625 C231.13987287 322.26419225 228.3760698 322.34769132 225.51496887 322.3409729 C224.63852539 322.3467653 223.76208191 322.3525577 222.85907954 322.35852563 C219.91098036 322.37558296 216.96303718 322.37840706 214.01489258 322.38134766 C211.90609857 322.39064188 209.79730825 322.40080978 207.68852234 322.41178894 C201.95335356 322.43916006 196.21820944 322.4542594 190.48299241 322.46721697 C184.49316459 322.48281645 178.50338736 322.50961676 172.51359558 322.5352478 C161.16643854 322.58209207 149.81927205 322.61880882 138.47206753 322.65192068 C125.55564658 322.6901022 112.63927636 322.73952272 99.72289813 322.78990483 C73.14863633 322.89330868 46.57434195 322.98254155 20 323.0625 C19.78085938 324.08988281 19.56171875 325.11726563 19.3359375 326.17578125 C19.0164888 327.57571822 18.69612602 328.97544683 18.375 330.375 C18.23449219 331.04595703 18.09398438 331.71691406 17.94921875 332.40820312 C16.31834892 339.35570859 13.70560544 343.26889002 10 350.0625 C101.41 350.0625 192.82 350.0625 287 350.0625 C282.00466611 344.22154079 282.00466611 344.22154079 276.75463867 338.68774414 C275.588946 337.51732323 275.588946 337.51732323 274.39970398 336.32325745 C273.58073135 335.50630905 272.76175873 334.68936066 271.91796875 333.84765625 C271.06318436 332.99191513 270.20839996 332.13617401 269.32771301 331.25450134 C267.53293621 329.45904746 265.73690964 327.66484209 263.93969727 325.87182617 C261.17543024 323.1129538 258.41658841 320.34873611 255.65820312 317.58398438 C253.91177924 315.83822058 252.16504556 314.09276663 250.41796875 312.34765625 C249.58887497 311.51653824 248.75978119 310.68542023 247.90556335 309.82911682 C247.14419571 309.07090134 246.38282806 308.31268585 245.59838867 307.53149414 C244.9258757 306.85977676 244.25336273 306.18805939 243.56047058 305.49598694 C242.23041926 303.94974869 242.23041926 303.94974869 241 304.0625 Z M317.1796875 358.6875 C316.07303114 359.80748957 314.9716808 360.93274066 313.875 362.0625 C313.03001953 362.92101562 313.03001953 362.92101562 312.16796875 363.796875 C310.77413732 365.21433069 309.38648364 366.63785626 308 368.0625 C314.72396356 376.07927979 322.04433212 383.47636201 329.39404297 390.91650391 C331.05163812 392.60085025 332.70202706 394.29231805 334.34521484 395.99072266 C336.73165125 398.45618329 339.14022161 400.89795786 341.5546875 403.3359375 C342.28203094 404.09627289 343.00937439 404.85660828 343.75875854 405.63998413 C347.06290303 408.93140301 349.60242424 411.41732656 354.31298828 412.17431641 C357.9009439 412.06550409 358.72156198 411.9900052 361.4375 410 C364.26147307 406.76276258 365.08890832 405.33009921 365 401.0625 C363.12545664 397.44438406 360.88681948 394.69706827 358.01928711 391.82299805 C357.22513901 391.02254562 356.43099091 390.2220932 355.61277771 389.39738464 C354.7595845 388.5482399 353.9063913 387.69909515 353.02734375 386.82421875 C352.14849014 385.94345169 351.26963654 385.06268463 350.364151 384.15522766 C348.03588212 381.82525283 345.7028136 379.50021209 343.36810303 377.17669678 C341.45874173 375.27254898 339.55684996 373.36102582 337.65488338 371.44949627 C335.38804809 369.17371764 333.11363012 366.90554921 330.83984375 364.63671875 C329.98462631 363.77745285 329.12940887 362.91818695 328.24827576 362.03288269 C327.45727982 361.24819107 326.66628387 360.46349945 325.85131836 359.6550293 C325.15421249 358.95951462 324.45710663 358.26399994 323.73887634 357.54740906 C320.66335046 354.92107151 320.13645261 355.93549702 317.1796875 358.6875 Z " fill="#000000" transform="translate(101,45.9375)"/>
<path d="M0 0 C0.99 0.66 1.98 1.32 3 2 C8.72893661 2.46201102 11.111081 2.03905776 16 -1 C18.8125 -0.6875 18.8125 -0.6875 21 0 C21.6875 2.1875 21.6875 2.1875 22 5 C21.525625 5.763125 21.05125 6.52625 20.5625 7.3125 C18.4655965 10.91917402 18.34214523 13.91130767 19 18 C19.97691857 19.68029994 20.97388051 21.34928604 22 23 C21.6875 25.8125 21.6875 25.8125 21 28 C18.75 28.6875 18.75 28.6875 16 29 C14.64082143 28.03542166 13.30915279 27.03145371 12 26 C8.96187396 24.96427521 7.00439675 24.55995977 4.01171875 25.87109375 C2.6372852 26.61913762 1.26738366 27.37557384 -0.09765625 28.140625 C-2.67890605 29.30669267 -4.39007351 28.97872243 -7 28 C-7.75 25.9375 -7.75 25.9375 -8 23 C-6.9733678 21.26755817 -5.9440649 19.5361619 -4.87109375 17.83203125 C-3.37424399 14.68394813 -4.08149865 12.24537143 -5 9 C-5.804375 7.948125 -5.804375 7.948125 -6.625 6.875 C-8 5 -8 5 -7.8125 2.3125 C-6.30655171 -1.97366051 -3.81574973 -1.02373773 0 0 Z " fill="#000000" transform="translate(170,234)"/>
<path d="M0 0 C2.75 0.25 2.75 0.25 5.1875 1.75 C8.36170526 3.60807137 10.12109563 3.70361305 13.75 3.25 C15.42739862 2.26810813 17.09467377 1.26866229 18.75 0.25 C21.5625 0.0625 21.5625 0.0625 23.75 0.25 C25 2.3125 25 2.3125 25.75 5.25 C24.74985505 6.99218798 23.74329734 8.73254467 22.65625 10.421875 C21.09992704 13.56135408 21.84308508 15.98510631 22.75 19.25 C23.306875 20.11625 23.86375 20.9825 24.4375 21.875 C24.870625 22.65875 25.30375 23.4425 25.75 24.25 C24.9375 27.0625 24.9375 27.0625 23.75 29.25 C20.59747417 29.5202165 19.14770584 29.52618461 16.5 27.6875 C12.56273036 25.62938178 8.9921444 26.14154184 4.75 27.25 C4.09 27.91 3.43 28.57 2.75 29.25 C-0.375 29.375 -0.375 29.375 -3.25 29.25 C-3.9375 26.5 -3.9375 26.5 -4.25 23.25 C-3.5384375 22.3528125 -3.5384375 22.3528125 -2.8125 21.4375 C-0.35422491 17.99591487 -0.65061191 14.34708317 -1.25 10.25 C-2.73800372 8.0427642 -2.73800372 8.0427642 -4.25 6.25 C-3.70691906 0.4118799 -3.70691906 0.4118799 0 0 Z " fill="#000000" transform="translate(228.25,162.75)"/>
<path d="M0 0 C2.5269065 0.77750969 4.60205884 1.73927993 6.8125 3.1875 C10.2568991 4.46684824 13.48907147 3.93043241 17 3 C17.721875 2.443125 18.44375 1.88625 19.1875 1.3125 C19.785625 0.879375 20.38375 0.44625 21 0 C23.75 0.8125 23.75 0.8125 26 2 C26.27186697 5.17178131 26.19555229 6.68222753 24.5 9.4375 C22.64192863 12.61170526 22.54638695 14.37109563 23 18 C23.495 18.825 23.99 19.65 24.5 20.5 C26.32106827 23.53511378 26.24267821 25.52161235 26 29 C23.25 29.6875 23.25 29.6875 20 30 C19.38125 29.525625 18.7625 29.05125 18.125 28.5625 C15.43180937 26.58221277 13.23863973 26.58797338 9.953125 26.69140625 C7.22527621 27.12240636 5.32193798 28.55663315 3 30 C0.1875 29.6875 0.1875 29.6875 -2 29 C-2.6875 26.8125 -2.6875 26.8125 -3 24 C-2.525625 23.236875 -2.05125 22.47375 -1.5625 21.6875 C0.68656273 17.8191121 0.42408475 15.45288991 0 11 C-1.43990623 8.82967524 -1.43990623 8.82967524 -3 7 C-3.375 4.375 -3.375 4.375 -3 2 C-2.01 1.34 -1.02 0.68 0 0 Z " fill="#000000" transform="translate(156,166)"/>
<path d="M0 0 C4.26546997 2.48172798 6.23753901 4.69772808 7.5625 9.375 C8.31858831 14.01182731 7.46775879 16.94013876 5 21 C1.66340796 24.09245116 -0.63989118 25.866656 -5.1875 26.3125 C-9.70237715 25.9424281 -12.53168013 24.89474759 -16 22 C-18.98183486 17.67153004 -19.63850079 14.19922071 -19 9 C-17.53953556 4.99816241 -15.73611974 2.54781004 -12.3125 0 C-7.88963382 -1.33520488 -4.43626996 -1.26977315 0 0 Z " fill="#000000" transform="translate(82,354)"/>
</svg>
