<?xml version="1.0" encoding="UTF-8"?>
<svg version="1.1" xmlns="http://www.w3.org/2000/svg" width="864" height="980">
<path d="M0 0 C3.87070254 0.4667909 6.71418847 1.74738106 10.078125 3.66796875 C11.06208252 4.22476318 12.04604004 4.78155762 13.05981445 5.35522461 C14.11257568 5.95987549 15.16533691 6.56452637 16.25 7.1875 C18.49856532 8.4637753 20.74726728 9.73980991 22.99609375 11.015625 C24.1626319 11.68027844 25.32913561 12.34499233 26.49560547 13.00976562 C33.07979594 16.75621506 39.70661206 20.42724379 46.32324219 24.1159668 C53.2632822 27.99692552 60.14384212 31.9727916 67 36 C65.63732845 39.73249873 63.93568535 42.84249793 61.7265625 46.140625 C61.07236328 47.1207959 60.41816406 48.1009668 59.74414062 49.11083984 C59.04482422 50.1467627 58.34550781 51.18268555 57.625 52.25 C56.90763672 53.31814941 56.19027344 54.38629883 55.45117188 55.48681641 C38.53161925 80.59871697 38.53161925 80.59871697 29 92 C28.2059375 92.96679688 27.411875 93.93359375 26.59375 94.9296875 C21.35806197 101.25606213 15.90839174 107.36519236 10.3125 113.375 C9.40455688 114.35557373 9.40455688 114.35557373 8.47827148 115.35595703 C4.78175275 119.28829593 0.92396146 122.90944321 -3.17163086 126.42333984 C-5.4912729 128.42364006 -7.70789833 130.52524202 -9.9375 132.625 C-17.22346592 139.26511853 -25.08355768 145.1374832 -33 151 C-33.61278809 151.45407227 -34.22557617 151.90814453 -34.85693359 152.37597656 C-57.81780696 169.29046524 -82.57746673 183.15709132 -108 196 C-109.27447998 196.64533691 -109.27447998 196.64533691 -110.57470703 197.30371094 C-167.21980438 225.74281331 -230.02168052 241.97283341 -292.24902344 252.47851562 C-295.07511083 252.95058932 -295.07511083 252.95058932 -298 254 C-291.85790268 260.24371291 -285.69807778 266.34701237 -279 272 C-278.04609375 272.81984375 -277.0921875 273.6396875 -276.109375 274.484375 C-268.8696561 280.68937049 -261.46622485 286.65153642 -253.93359375 292.49609375 C-251.87770025 294.09512203 -249.82911162 295.70320039 -247.78125 297.3125 C-239.8592707 303.52667397 -231.8791591 309.66213519 -223.8125 315.6875 C-223.03495361 316.27571533 -222.25740723 316.86393066 -221.45629883 317.4699707 C-214.90922467 322.32147133 -209.47981467 325.81838047 -201 325 C-165.85007877 318.10811896 -130.83357549 302.23344467 -103.98242188 278.3515625 C-100.19348538 275 -100.19348538 275 -98 275 C-103.48319309 299.7886021 -125.23652515 322.02460708 -141.35546875 340.8828125 C-144.6531045 344.74917268 -147.84202531 348.70083519 -151.02734375 352.66015625 C-152.91711116 354.90168235 -154.91559378 356.94108281 -157 359 C-149.33640099 362.83775464 -141.67047012 366.67057548 -133.99188232 370.47827148 C-130.76894569 372.07702433 -127.54773914 373.67924666 -124.32666016 375.28173828 C-122.68934778 376.09534003 -121.05132322 376.90751012 -119.41259766 377.71826172 C-110.08886348 382.33285197 -100.90463471 387.0544572 -91.94824219 392.35205078 C-75.39606059 401.60405689 -56.94189518 401.47689372 -39 397 C-3.5632237 386.86631172 29.06894532 365.27328059 58 343 C58.99644531 342.2471875 59.99289062 341.494375 61.01953125 340.71875 C75.4926213 329.72562612 89.33382181 317.97377222 103 306 C103.89460937 305.21882813 104.78921875 304.43765625 105.7109375 303.6328125 C107.4759315 302.09076511 109.23929771 300.5469429 111 299 C113.20742815 304.84482548 109.32281746 310.63028115 107 316 C106.7304248 316.62567871 106.46084961 317.25135742 106.18310547 317.89599609 C90.62832907 353.4639243 67.75179037 385.94907778 46.23828125 418.1328125 C45.86101898 418.69743195 45.48375671 419.26205139 45.09506226 419.84378052 C43.30840584 422.51667233 41.51822149 425.1870861 39.72265625 427.85400391 C39.09875 428.78390137 38.47484375 429.71379883 37.83203125 430.671875 C37.28264893 431.4875293 36.7332666 432.30318359 36.16723633 433.14355469 C34.91128688 434.77561079 34.91128688 434.77561079 35 436 C57.67943519 441.6244803 80.58410033 445.82231653 103.61820221 449.68313217 C105.87516465 450.06252768 108.13145819 450.44570067 110.38763428 450.82974243 C113.99091797 451.44204758 117.59588895 452.04323967 121.20248413 452.6357193 C123.19511738 452.96488077 125.1863277 453.30261974 127.17749023 453.64056396 C128.38332764 453.83531311 129.58916504 454.03006226 130.83154297 454.23071289 C131.88211884 454.40421768 132.9326947 454.57772247 134.0151062 454.75648499 C138.5698149 455.12806938 141.85105989 454.91624338 145.46875 452.03125 C148.79792911 448.04445527 151.65604782 443.84196339 154.5 439.5 C155.11166016 438.57292236 155.72332031 437.64584473 156.35351562 436.69067383 C206.67495127 360.01008247 245.91820621 276.51428053 276.92881966 190.34215546 C277.67774633 188.26320101 278.42863061 186.18496517 279.18028259 184.10699463 C279.55281332 183.07700285 279.55281332 183.07700285 279.93286991 182.02620316 C280.43534439 180.63708343 280.93792512 179.24800213 281.44061184 177.8589592 C282.93419733 173.72674303 284.41126094 169.58906222 285.87646484 165.44670296 C286.57365667 163.48298293 287.27799354 161.52200479 287.98550415 159.5619812 C288.86141276 157.13428849 289.72526366 154.70220297 290.57553101 152.26541138 C290.96785919 151.18863129 291.36018738 150.1118512 291.7644043 149.00244141 C292.10110641 148.05640045 292.43780853 147.1103595 292.78471375 146.13565063 C294 144 294 144 295.78276062 143.08366394 C298.73878463 142.97212316 300.91077754 143.70015116 303.71142578 144.65893555 C304.86007111 145.04651535 306.00871643 145.43409515 307.19216919 145.8334198 C308.43070648 146.26350845 309.66924377 146.69359711 310.9453125 147.13671875 C312.23814547 147.5778165 313.53127198 148.01805476 314.82467651 148.45747375 C317.5386653 149.38187564 320.25019191 150.31305757 322.95996094 151.24975586 C326.40627912 152.44102957 329.85629713 153.62106604 333.30800056 154.79663372 C336.62589189 155.92707323 339.94196403 157.06280358 343.2578125 158.19921875 C345.09740036 158.82917 345.09740036 158.82917 346.97415161 159.47184753 C353.72744905 161.80481807 360.39881853 164.26474528 367 167 C365.79705792 172.91221226 364.27365605 178.56940399 362.26953125 184.2578125 C362.00276581 185.02623978 361.73600037 185.79466705 361.46115112 186.58638 C360.58482918 189.10160654 359.6996235 191.61356419 358.8125 194.125 C358.50454498 195.00036407 358.19658997 195.87572815 357.87930298 196.77761841 C342.56485416 240.24748876 325.43305438 283.20118943 306 325 C305.65324219 325.74594421 305.30648437 326.49188843 304.94921875 327.26043701 C291.12790456 356.94974137 276.72212494 386.1737242 260.38574219 414.57519531 C259.16866816 416.70486043 257.9716835 418.84326522 256.7890625 420.9921875 C246.41914082 439.82100243 235.08260194 458.22789802 223.22216797 476.15136719 C221.99653616 478.00523935 220.78097458 479.86542806 219.56640625 481.7265625 C213.45484203 491.04437369 207.00502363 500.10521379 200.40673828 509.08398438 C199.24187602 510.67055831 198.0864797 512.26407724 196.93359375 513.859375 C189.81481193 523.43917421 181.47245162 530.4105291 169.78515625 533.60546875 C95.30522661 544.15592162 -0.78338159 510.10029021 -195.47705078 426.44287109 C-197.69143339 425.17646881 -199.9156739 423.93348564 -202.15234375 422.70703125 C-240.42277067 401.70931392 -276.96225943 375.95739871 -310.06640625 347.5 C-312.79611025 345.17375425 -315.57308751 342.92573847 -318.375 340.6875 C-323.64826087 336.402493 -328.59381939 331.80695987 -333.52294922 327.13549805 C-336.5524246 324.2665709 -339.60868116 321.45536016 -342.77246094 318.73461914 C-346.77561277 315.24097611 -350.5665842 311.57857384 -354.31640625 307.81640625 C-354.97656235 307.15720688 -355.63671844 306.49800751 -356.31687927 305.8188324 C-357.70035506 304.43603165 -359.08259083 303.05198924 -360.46362305 301.66674805 C-362.55731669 299.56769657 -364.65629874 297.4740406 -366.75585938 295.38085938 C-368.10969571 294.02636214 -369.46322175 292.67155469 -370.81640625 291.31640625 C-371.43326797 290.70156876 -372.0501297 290.08673126 -372.6856842 289.45326233 C-376.43615557 285.68289827 -379.9991045 281.79415789 -383.47181702 277.76629639 C-385.5547522 275.35880924 -387.71492655 273.02576133 -389.875 270.6875 C-394.00087737 266.16214282 -397.9368702 261.5255635 -401.76953125 256.75 C-403.27739287 254.89092017 -404.8177376 253.05779497 -406.38671875 251.25 C-416.07388328 239.9776631 -419.92291531 229.78373606 -419 215 C-417.29152106 204.90839135 -412.08076502 195.92105445 -404.15234375 189.46875 C-398.1785903 185.39228666 -391.70661461 183.03667689 -384.49560547 182.67456055 C-383.60330231 182.62730331 -382.71099915 182.58004608 -381.79165649 182.53135681 C-380.34404434 182.45976097 -380.34404434 182.45976097 -378.8671875 182.38671875 C-376.77763377 182.27507662 -374.68811686 182.16274358 -372.59863281 182.04980469 C-371.50184204 181.99127319 -370.40505127 181.9327417 -369.27502441 181.87243652 C-288.23015171 177.46418671 -208.97160094 159.56294577 -64 76 C-63.0615625 75.17242188 -62.123125 74.34484375 -61.15625 73.4921875 C-57.67705226 70.39160834 -54.23444552 67.29417747 -51 63.9375 C-49 62 -49 62 -47 62 C-46.64228516 61.14535156 -46.64228516 61.14535156 -46.27734375 60.2734375 C-44.73024545 57.5198864 -42.86690839 55.78561331 -40.5625 53.625 C-26.35007468 39.65726493 -15.56776593 22.3017016 -4.38867188 5.91259766 C-1.10259179 1.10259179 -1.10259179 1.10259179 0 0 Z " fill="#040404" transform="translate(419,446)"/>
<path d="M0 0 C1.96283936 0.01135986 1.96283936 0.01135986 3.96533203 0.02294922 C26.4385461 0.40253624 45.5253873 8.12366302 65.75 17.1875 C67.97391777 18.17782071 70.19856854 19.16648269 72.42324829 20.15509033 C73.98124285 20.8475551 75.5389998 21.5405547 77.0965271 22.23406982 C82.77503025 24.76100482 88.46449744 27.26199745 94.16015625 29.75 C118.63650448 40.44468626 143.01474507 51.34291141 167.3125 62.4375 C168.0437207 62.77110535 168.77494141 63.10471069 169.52832031 63.44842529 C174.06484259 65.51887598 178.59646972 67.59962485 183.125 69.6875 C184.19016846 70.17581299 185.25533691 70.66412598 186.3527832 71.16723633 C202.49270484 78.65360017 216.3353888 87.22111601 229.3125 99.4375 C229.91578125 99.97632813 230.5190625 100.51515625 231.140625 101.0703125 C250.51998354 119.09130479 262.08004719 147.69811132 263.43554688 173.80761719 C264.07855176 193.35653409 262.20191112 213.65867776 253.3125 231.4375 C247.23923603 229.53376276 241.46230946 227.29009238 235.6875 224.62109375 C234.88001312 224.25278442 234.07252625 223.8844751 233.24057007 223.50500488 C231.50319265 222.71234954 229.7666736 221.91781052 228.03094482 221.12155151 C223.33024841 218.96603223 218.62228021 216.8265302 213.9140625 214.6875 C212.94675201 214.24784409 211.97944153 213.80818817 210.9828186 213.35520935 C201.25519577 208.94239972 191.47661485 204.64923861 181.6875 200.375 C167.35550112 194.1133157 153.07258615 187.75191617 138.82019043 181.31121826 C126.22872912 175.62338952 113.59782913 170.03271102 100.9375 164.5 C86.13133391 158.02917793 71.39022895 151.42643496 56.67980957 144.74102783 C42.87513431 138.46998791 29.01892317 132.32696366 15.12548828 126.25537109 C1.65488392 120.36696152 -11.76507605 114.37397111 -25.16168213 108.3192749 C-38.99803027 102.06823183 -52.88600098 95.94162211 -66.79708862 89.85894775 C-80.49726986 83.86632849 -94.13507065 77.75869916 -107.6875 71.4375 C-97.0549812 43.14911469 -74.60139767 22.89872885 -47.6640625 10.1875 C-32.45982914 3.32442642 -16.67641219 -0.13663857 0 0 Z " fill="#030303" transform="translate(555.6875,319.5625)"/>
<path d="M0 0 C0.78318604 0.00757324 1.56637207 0.01514648 2.37329102 0.02294922 C19.11212569 0.48721085 33.02241483 7.03493546 44.88671875 18.61328125 C51.27081652 25.51268736 53.81344183 32.19249426 53.71408081 41.49902344 C53.38754743 45.98102569 52.1094916 49.866218 50.56640625 54.0625 C50.09636925 55.40356812 50.09636925 55.40356812 49.61683655 56.77172852 C48.59594016 59.66711358 47.54963713 62.55242232 46.5 65.4375 C45.79997518 67.39169676 45.10060006 69.34612636 44.40185547 71.30078125 C42.51534004 76.55399417 40.60296678 81.79744923 38.68273926 87.03842163 C36.48399812 93.04023486 34.29536357 99.04573585 32.10546875 105.05078125 C31.87748219 105.67560205 31.64949562 106.30042286 31.41460037 106.94417763 C26.22183776 121.17566388 21.08329592 135.42655316 15.95054626 149.67977142 C9.38875061 167.90011326 2.8138132 186.11550113 -3.8125 204.3125 C-8.76924077 217.92484378 -13.71440328 231.54124948 -18.63986206 245.16494751 C-19.68219427 248.04782543 -20.72496362 250.9305449 -21.76782227 253.81323242 C-25.15677528 263.18250689 -28.54255471 272.55291146 -31.92057896 281.9261322 C-33.8250082 287.21020518 -35.73149398 292.49353369 -37.63918972 297.77642822 C-38.80121821 300.99476456 -39.96216295 304.21348256 -41.12045288 307.4331665 C-42.41613232 311.03325177 -43.71550671 314.63198454 -45.015625 318.23046875 C-45.39517838 319.28794815 -45.77473175 320.34542755 -46.16578674 321.43495178 C-48.73425232 328.52869631 -51.5415064 335.49761706 -54.5 342.4375 C-57.96564379 341.31272677 -61.34899331 340.14343164 -64.67724609 338.66015625 C-65.45011963 338.31731598 -66.22299316 337.97447571 -67.01928711 337.62124634 C-67.84565674 337.25123505 -68.67202637 336.88122375 -69.5234375 336.5 C-70.40539795 336.10767181 -71.2873584 335.71534363 -72.19604492 335.31112671 C-75.09027424 334.02269022 -77.98265213 332.73015386 -80.875 331.4375 C-82.89526678 330.5370965 -84.91561284 329.63687086 -86.93603516 328.73681641 C-101.92836416 322.05322073 -116.89751258 315.31830232 -131.85742188 308.5625 C-141.92268428 304.02120313 -152.01111199 299.54555977 -162.18505859 295.25146484 C-163.00828613 294.90035645 -163.83151367 294.54924805 -164.6796875 294.1875 C-165.37819824 293.89359375 -166.07670898 293.5996875 -166.79638672 293.296875 C-168.5 292.4375 -168.5 292.4375 -170.5 290.4375 C-170.38807408 284.44013596 -167.13368671 279.69044716 -164.25 274.625 C-163.14876285 272.65100915 -162.04989165 270.67569694 -160.953125 268.69921875 C-160.38271484 267.67231934 -159.81230469 266.64541992 -159.22460938 265.58740234 C-156.39373617 260.41697114 -153.69889602 255.17768335 -151 249.9375 C-146.43271802 241.09336485 -141.74458516 232.32774938 -136.94921875 223.60546875 C-133.37852103 217.09364369 -129.9168135 210.53123371 -126.5 203.9375 C-122.109365 195.46489629 -117.59455326 187.07055398 -113 178.70703125 C-109.41393559 172.16059596 -105.93431892 165.56466229 -102.5 158.9375 C-98.10934431 150.4649066 -93.59455357 142.07055455 -89 133.70703125 C-85.41393559 127.16059596 -81.93431892 120.56466229 -78.5 113.9375 C-74.10934431 105.4649066 -69.59455357 97.07055455 -65 88.70703125 C-61.41393266 82.16059062 -57.93453262 75.56455504 -54.5 68.9375 C-50.12678826 60.5045149 -45.66391254 52.12807352 -41.07910156 43.80810547 C-38.37631604 38.90060156 -35.72430101 33.97328258 -33.13671875 29.00390625 C-32.57138428 27.92939209 -32.0060498 26.85487793 -31.42358398 25.74780273 C-30.34223699 23.68969417 -29.27192182 21.62573444 -28.21508789 19.55493164 C-24.16086117 11.8870554 -19.66800224 5.80781659 -12.03125 1.46484375 C-7.8933464 0.26100675 -4.28713648 -0.05870875 0 0 Z " fill="#030303" transform="translate(810.5,-0.4375)"/>
<path d="M0 0 C0.66 0.33 1.32 0.66 2 1 C-2.95 5.95 -7.9 10.9 -13 16 C-13.66 15.67 -14.32 15.34 -15 15 C-10.28109462 9.59947495 -5.69641143 4.38185495 0 0 Z " fill="#6B6B6B" transform="translate(481,346)"/>
<path d="M0 0 C0.66 0.33 1.32 0.66 2 1 C-1.96 4.96 -5.92 8.92 -10 13 C-10 9.28115772 -9.1259934 8.63852271 -6.6875 5.9375 C-5.76517578 4.89916016 -5.76517578 4.89916016 -4.82421875 3.83984375 C-3 2 -3 2 0 0 Z " fill="#6E6E6E" transform="translate(17,634)"/>
</svg>
