<svg xmlns="http://www.w3.org/2000/svg" viewBox="0 0 872.06 815.06"><defs><style>.a,.b,.c,.d,.e,.f{fill:none;stroke:#000;}.a{stroke-miterlimit:10;stroke-width:16px;}.b,.d,.e{stroke-linecap:round;}.b,.c,.d,.e,.f{stroke-linejoin:round;}.b,.c{stroke-width:17.13px;}.d{stroke-width:39px;}.e{stroke-width:15.24px;}.f{stroke-width:31px;}</style></defs><rect class="a" x="123.06" y="8" width="370" height="440" rx="185"/><path class="b" d="M1082,373c0-22.92-94.92-41.5-212-41.5S658,350.08,658,373C658,372.5,1082,372.5,1082,373Z" transform="translate(-561.94 -152)"/><circle class="b" cx="300.56" cy="102.5" r="27"/><path class="b" d="M1169.5,867.5v91h-599V859.16A169.66,169.66,0,0,1,740.16,689.5H789.5" transform="translate(-561.94 -152)"/><path class="b" d="M951.5,689.5h71" transform="translate(-561.94 -152)"/><path class="b" d="M951.5,586.5v103q-81,50.58-162,0v-106" transform="translate(-561.94 -152)"/><line class="c" x1="308.56" y1="447.5" x2="308.06" y2="805"/><polyline class="c" points="96.06 805 96.06 729.5 217.56 729.5 217.56 806.5"/><line class="c" x1="96.56" y1="768.5" x2="217.56" y2="768.5"/><line class="b" x1="156.56" y1="751.5" x2="156.56" y2="778.5"/><polyline class="c" points="397.78 802.81 397.78 727.31 519.28 727.31 519.28 804.31"/><line class="c" x1="398.28" y1="766.31" x2="519.28" y2="766.31"/><line class="b" x1="458.28" y1="749.31" x2="458.28" y2="776.31"/><circle class="d" cx="667.06" cy="544" r="185.5"/><ellipse class="e" cx="668.7" cy="537.75" rx="44.04" ry="102.75"/><polyline class="e" points="573.96 449.23 586.41 493.71 624.67 521.81"/><polyline class="e" points="763.86 449.45 751.41 493.93 713.16 522.03"/><polyline class="e" points="760.51 640.45 748.06 595.97 709.8 567.87"/><polyline class="e" points="570.61 640.24 583.06 595.76 621.32 567.66"/><line class="e" x1="563.28" y1="545.31" x2="621.11" y2="545.31"/><line class="e" x1="712.62" y1="545.31" x2="770.56" y2="545.31"/><line class="e" x1="630.78" y1="485.52" x2="706.63" y2="485.52"/><line class="f" x1="535.36" y1="413.38" x2="791.19" y2="681.85"/></svg>