<?xml version="1.0" encoding="UTF-8"?>
<svg version="1.1" xmlns="http://www.w3.org/2000/svg" width="512" height="512">
<path d="M0 0 C6.21574459 4.1861137 10.49437906 9.51853991 12 17 C12.79071628 25.00496222 11.1260099 32.72448741 9.53132248 40.52836227 C9.07699065 42.75478087 8.63549503 44.98342058 8.19717407 47.21304321 C6.95006889 53.54382504 5.67857796 59.86966168 4.40332031 66.19482422 C3.62058928 70.08156022 2.85082697 73.9706916 2.0886116 77.86149979 C1.6545407 80.05509475 1.20516259 82.24520296 0.75546265 84.43563843 C0.49157138 85.77772819 0.22847651 87.11997487 -0.03369141 88.46240234 C-0.26907623 89.63137054 -0.50446106 90.80033875 -0.74697876 92.00473022 C-1.01890418 95.22378804 -0.81932825 96.39060232 1 99 C2.33442701 100.58043048 2.33442701 100.58043048 3.90161133 102.03344727 C4.48594437 102.59826309 5.0702774 103.16307892 5.6723175 103.74501038 C6.30252304 104.34607101 6.93272858 104.94713165 7.58203125 105.56640625 C8.92051973 106.86982905 10.25839047 108.17388646 11.59570312 109.47851562 C13.69566534 111.51689394 15.79973867 113.55030169 17.9152832 115.57250977 C26.83852036 124.12267911 32.90148037 130.99148169 36.9683342 142.81529808 C39.90415259 150.63875084 43.68704603 155.59714395 49.74316406 161.26806641 C50.61391571 162.11253326 51.48466736 162.95700012 52.38180542 163.82705688 C54.75161543 166.12153598 57.13582687 168.3998563 59.52460957 170.67453051 C62.05443182 173.09579135 64.55664736 175.54517158 67.05999756 177.9937439 C75.5615629 186.30032246 84.09729564 194.57065269 92.68554688 202.78759766 C137.58563102 245.78374241 137.58563102 245.78374241 148.66201782 274.62350464 C150.54109031 279.36548075 152.88309787 283.78371816 155.33984375 288.24609375 C156.10977837 289.69024902 156.87788135 291.13538249 157.64404297 292.58154297 C158.21164337 293.64511017 158.21164337 293.64511017 158.79071045 294.73016357 C162.6017578 301.88349925 166.36298807 309.06278552 170.09887695 316.25561523 C171.08468129 318.14615609 172.07667555 320.03348064 173.07446289 321.91772461 C174.5458428 324.6989595 175.99551877 327.49060164 177.44140625 330.28515625 C178.10844322 331.52918968 178.10844322 331.52918968 178.78895569 332.7983551 C182.30690002 339.68427526 183.93485505 346.56364711 182.3125 354.25 C180.28837645 360.03321013 176.86127084 364.31131398 173 369 C173.44730469 369.59425781 173.89460938 370.18851562 174.35546875 370.80078125 C182.38339178 381.80708084 187.35474544 392.18474708 186 406 C183.7582375 413.59475613 179.2147352 418.34203744 173 423 C171.88818359 423.83724609 171.88818359 423.83724609 170.75390625 424.69140625 C170.17511719 425.12324219 169.59632813 425.55507813 169 426 C172.2038296 435.86711352 183.4920878 440.64313497 192.09375 445.3359375 C195 447 195 447 197 449 C197.3397122 452.00887945 197.54965117 454.09715473 197 457 C194.9375 459.5625 194.9375 459.5625 192 461 C181.52551212 461.42753012 171.63213892 453.37062835 164 447 C163.113125 446.38125 162.22625 445.7625 161.3125 445.125 C155.76700463 440.02913939 152.40550778 434.21728096 151.6875 426.75 C152.12384368 421.51387589 153.76783677 417.30975179 157.4609375 413.48828125 C158.91833582 412.25652074 160.45815652 411.12426087 162 410 C162.7425 409.401875 163.485 408.80375 164.25 408.1875 C166 407 166 407 168 407 C170.40984109 400.61392111 169.8592528 396.92152222 167.29296875 390.6328125 C165.53873694 387.06075135 163.48403089 384.10503861 161 381 C160.57589844 381.38671875 160.15179688 381.7734375 159.71484375 382.171875 C152.60983254 388.48050034 146.1317982 392.4324885 136.4296875 392.2734375 C122.56642457 390.71326322 112.31196286 376.41404022 103.125 367.125 C100.69296814 364.66640929 98.25765523 362.21113697 95.8203125 359.7578125 C95.26513947 359.19434113 94.70996643 358.63086975 94.13796997 358.05032349 C90.21529716 354.02129602 90.21529716 354.02129602 84.9375 352.6875 C81.33161289 352.97368152 79.85322282 353.39981688 76.75 354.9375 C70.18701888 358.06272911 63.35889658 358.97501226 56.3125 356.9375 C47.4272504 353.26527861 40.87874685 346.19761343 34.21679688 339.47753906 C32.74568086 337.99564923 31.26410193 336.52482368 29.78125 335.0546875 C28.82748273 334.09959928 27.8743357 333.14389119 26.921875 332.1875 C26.07206055 331.33542969 25.22224609 330.48335938 24.34667969 329.60546875 C16.63808045 321.0467743 15.72324249 314.43796008 16.22265625 303.3046875 C15.85158178 297.79716113 12.79153606 294.54110067 8.9947052 290.75419617 C8.18282242 289.93956406 7.37093964 289.12493195 6.53445435 288.28561401 C5.64756927 287.40591949 4.7606842 286.52622498 3.84692383 285.61987305 C2.90025078 284.67376458 1.95401878 283.72721462 1.00819397 282.78025818 C-1.55320392 280.21828764 -4.12071117 277.66252054 -6.68937469 275.10783744 C-9.37554547 272.43418861 -12.05603495 269.75485619 -14.73713684 267.0761261 C-19.81168575 262.00778765 -24.8913103 256.94456806 -29.97278625 251.88317567 C-35.75904304 246.11929138 -41.5396063 240.34971145 -47.31970251 234.57965028 C-59.20681919 222.71342576 -71.10105185 210.85436065 -83 199 C-87.1026284 203.04496628 -89.80350987 206.62316674 -92.4375 211.6875 C-92.82437988 212.42863037 -93.21125977 213.16976074 -93.60986328 213.93334961 C-101.03609982 228.62076093 -106.95014593 246.38078077 -106 263 C-105.01876714 266.01207731 -105.01876714 266.01207731 -103.5625 268.6875 C-99.18539556 277.30453466 -98.63727729 286.8219557 -101.125 296.1875 C-104.12117687 304.93689913 -109.39937303 312.19968652 -117.75 316.375 C-124.37892416 317.64979311 -129.94042072 317.04293114 -135.6875 313.375 C-139.20735636 310.78759681 -142.2731996 307.91319566 -145.28515625 304.7578125 C-146.95511413 303.04601057 -148.68373447 301.49206705 -150.5 299.9375 C-154.60510032 296.40166164 -158.5500302 292.70672361 -162.5 289 C-168.17446706 283.66665739 -168.17446706 283.66665739 -174 278.5 C-178.58189235 274.55837208 -182.95533415 270.39263874 -187.36450195 266.26049805 C-191.71459335 262.18787604 -196.10862159 258.171464 -200.55078125 254.19921875 C-203.34229483 251.69264435 -206.11107525 249.16188649 -208.875 246.625 C-209.37652588 246.16472412 -209.87805176 245.70444824 -210.39477539 245.23022461 C-212.44403681 243.3487045 -214.49250876 241.46632592 -216.54101562 239.58398438 C-221.65310374 234.8876188 -226.76885156 230.1967486 -231.9375 225.5625 C-236.38664411 221.57041082 -240.78101762 217.52186215 -245.16357422 213.45703125 C-249.34522865 209.58443944 -253.58994603 205.78890053 -257.87890625 202.03515625 C-263.04097943 197.08222784 -265.1399361 193.4068606 -265.3125 186.25 C-265.22254855 179.45457654 -263.86298862 176.03748228 -259.26953125 171.1640625 C-251.62463947 163.93117087 -243.28336309 160.87823445 -232.875 160.75 C-231.63492188 160.72421875 -230.39484375 160.6984375 -229.1171875 160.671875 C-225.86575882 160.76492065 -223.29879919 161.53353403 -220.24609375 162.6328125 C-214.1923699 164.57000413 -209.27199573 163.52896756 -203.1875 162.125 C-202.0958252 161.88668457 -201.00415039 161.64836914 -199.87939453 161.40283203 C-165.95073648 153.70589333 -138.5819399 139.00270632 -114.2644043 114.22827148 C-110.9940729 110.9112396 -107.72566105 107.8173094 -104 105 C-104.32306242 99.8214994 -107.25273489 97.37513355 -110.875 94.0625 C-115.69387331 89.62707623 -119.4409672 85.82257562 -120.43359375 79.03515625 C-120.43488281 78.05417969 -120.43617188 77.07320313 -120.4375 76.0625 C-120.45683594 75.08410156 -120.47617188 74.10570313 -120.49609375 73.09765625 C-119.4351725 66.47316371 -115.19064753 61.73962097 -110.53515625 57.171875 C-110.01996933 56.65618958 -109.50478241 56.14050415 -108.97398376 55.60919189 C-107.89258435 54.53011517 -106.80753424 53.4546855 -105.71899414 52.3828125 C-104.06147369 50.74898837 -102.41778628 49.10213828 -100.77539062 47.453125 C-99.71693674 46.40024598 -98.65771763 45.34813555 -97.59765625 44.296875 C-97.11104019 43.80934753 -96.62442413 43.32182007 -96.12306213 42.81951904 C-91.27170087 38.06713528 -87.15396217 35.46207531 -80.40234375 34.9453125 C-75.50814464 35.05672516 -71.2248916 36.2432298 -67.34765625 39.3046875 C-63.14159935 43.78966064 -60.67756252 49.33816201 -57.87890625 54.75390625 C-55.1809965 59.41495199 -51.784259 63.19608251 -48 67 C-46.23196993 61.23981929 -45.06699026 55.45733968 -43.9765625 49.53515625 C-43.59166707 47.49794833 -43.20623381 45.46084196 -42.8203125 43.42382812 C-42.22041117 40.24096374 -41.62409477 37.05758778 -41.03710938 33.87231445 C-40.46527299 30.77861265 -39.87833648 27.68807751 -39.2890625 24.59765625 C-39.11911774 23.65471207 -38.94917297 22.71176788 -38.77407837 21.74024963 C-37.19685299 13.57574304 -34.71489377 6.52370152 -27.98046875 1.25390625 C-19.37118411 -4.19694261 -8.9906284 -4.88062685 0 0 Z M-81 51 C-88.92 58.92 -96.84 66.84 -105 75 C-102.93348486 79.13303028 -100.96166173 81.11908416 -97.625 84.25 C-91.21196225 90.49785502 -87.60869621 95.43474625 -87.46875 104.53125 C-89.55603568 114.23098934 -96.73813272 120.20904673 -103.5625 126.8125 C-104.62788233 127.85777772 -105.69234352 128.90399517 -106.75585938 129.95117188 C-108.70221346 131.86506094 -110.65452368 133.77201608 -112.61157227 135.67504883 C-114.4218381 137.43720374 -116.21638001 139.21114124 -118 141 C-117.26247151 141.73291952 -116.52494303 142.46583904 -115.76506519 143.22096825 C-97.80645746 161.06849787 -79.86233884 178.93049422 -61.9332552 196.80768394 C-53.26249148 205.45268407 -44.58710866 214.09295116 -35.90063477 222.72216797 C-28.32808088 230.24483097 -20.76440557 237.77629001 -13.21118802 245.31836951 C-9.21280791 249.31024065 -5.21017006 253.29761796 -1.19686317 257.27448654 C2.58389586 261.02119695 6.35263231 264.7795976 10.11265373 268.54711533 C11.49135323 269.92444428 12.87431264 271.29752495 14.2619133 272.66588593 C31.87735869 290.04907744 31.87735869 290.04907744 32 303 C31.90138672 304.2065625 31.90138672 304.2065625 31.80078125 305.4375 C31.40439502 310.38772596 31.40439502 310.38772596 33.20532227 314.87133789 C33.75760498 315.46164795 34.3098877 316.05195801 34.87890625 316.66015625 C35.51538086 317.34609863 36.15185547 318.03204102 36.80761719 318.73876953 C37.53110352 319.48497559 38.25458984 320.23118164 39 321 C40.19737793 322.2372583 40.19737793 322.2372583 41.41894531 323.49951172 C44.03128917 326.16497622 46.66770877 328.80424968 49.3125 331.4375 C50.21806641 332.34693359 51.12363281 333.25636719 52.05664062 334.19335938 C52.92095703 335.05638672 53.78527344 335.91941406 54.67578125 336.80859375 C55.8500769 337.98119751 55.8500769 337.98119751 57.0480957 339.17749023 C59.45210284 341.42213229 60.44157685 341.95532615 63.734375 342.21875 C67.4094757 341.97257101 69.8923996 340.98859131 73.25 339.5 C80.72057795 336.50836924 86.07403025 336.1768128 93.875 337.8125 C104.79555447 342.49448399 114.33520382 355.22731059 122.625 363.625 C124.73929716 365.76590803 126.85693775 367.90343062 128.9765625 370.0390625 C129.89518066 370.96928223 130.81379883 371.89950195 131.76025391 372.85791016 C134.22591312 375.21606297 135.30764748 375.86812333 138.625 376.5 C143.8765114 375.72199831 146.30751933 372.6642938 150 369 C151.2589274 367.7784529 152.51806011 366.55711736 153.77734375 365.3359375 C155.14475917 363.99635168 156.51062881 362.65518625 157.875 361.3125 C158.54200928 360.65886475 159.20901855 360.00522949 159.89624023 359.33178711 C160.52602783 358.70280518 161.15581543 358.07382324 161.8046875 357.42578125 C162.65522705 356.58140503 162.65522705 356.58140503 163.52294922 355.7199707 C166.08873111 352.73221312 167.01531807 350.78122146 166.9375 346.8125 C165.75347698 341.99747306 163.58034193 338.19900661 161 334 C160.030625 334.350625 159.06125 334.70125 158.0625 335.0625 C153.64393942 336.30577919 149.41040548 336.29849501 145 335 C138.84429768 331.47242803 134.11628196 326.45757146 129.11328125 321.484375 C128.1650409 320.54511775 127.21673137 319.60593033 126.26835632 318.66680908 C124.28872424 316.70359834 122.31346661 314.73609738 120.34057617 312.76611328 C117.82398689 310.25491219 115.29162858 307.76028177 112.75503254 305.26931381 C110.79300858 303.33716584 108.84246534 301.39372823 106.89482689 299.44709015 C105.51834018 298.07679864 104.13029114 296.71815299 102.74201965 295.35980225 C97.31577169 289.89435391 93.45727998 285.40421794 92.78515625 277.4609375 C92.92244141 276.42839844 92.92244141 276.42839844 93.0625 275.375 C93.13597656 274.68148437 93.20945312 273.98796875 93.28515625 273.2734375 C95.46599694 266.33764909 101.19983962 261.5591673 106.25 256.625 C106.99507812 255.88894531 107.74015625 255.15289062 108.5078125 254.39453125 C110.33405762 252.59169953 112.16482205 250.79373022 114 249 C112.62227438 245.8950609 111.05010332 243.81763415 108.62435913 241.45114136 C107.57739365 240.42172928 107.57739365 240.42172928 106.50927734 239.371521 C105.36072266 238.25731781 105.36072266 238.25731781 104.18896484 237.12060547 C103.38222321 236.3296347 102.57548157 235.53866394 101.74429321 234.72372437 C99.99029794 233.00414074 98.23431742 231.2865803 96.47660446 229.57079697 C92.24222539 225.43143112 88.03072322 221.26890659 83.81620526 217.10934472 C77.35376975 210.73256207 70.8830503 204.36461704 64.38232422 198.02685547 C59.51990486 193.28612417 54.68504691 188.51854807 49.86442947 183.73532486 C48.03248361 181.92668939 46.19155285 180.12710334 44.34116745 178.33733749 C33.6828471 168.01916065 25.76646067 159.00388771 20.76371956 144.93272114 C18.60897644 139.47978031 15.45204487 135.07339072 11.3046875 130.94140625 C10.42425781 130.06162109 9.54382813 129.18183594 8.63671875 128.27539062 C7.72535156 127.38013672 6.81398438 126.48488281 5.875 125.5625 C4.95589844 124.64017578 4.03679687 123.71785156 3.08984375 122.76757812 C-0.82946245 118.09691512 -0.82946245 118.09691512 -6 116 C-6.22139648 117.22517334 -6.44279297 118.45034668 -6.67089844 119.71264648 C-7.50188397 124.29389325 -8.34787932 128.87226511 -9.19824219 133.44995117 C-9.56296755 135.42479374 -9.92371587 137.4003754 -10.28027344 139.37670898 C-10.79597641 142.23108173 -11.32632209 145.08241646 -11.859375 147.93359375 C-12.09089264 149.24196449 -12.09089264 149.24196449 -12.3270874 150.57676697 C-14.24287227 160.64549934 -17.40300459 168.07799925 -26 174 C-31.77365833 176.95098093 -39.05408288 176.91315987 -45.3125 175.46484375 C-51.47955695 173.32739788 -55.48416069 170.30548971 -58.8125 164.625 C-63.6604655 153.95457157 -60.7426429 142.08219258 -58.13671875 131.1484375 C-57.71649477 129.22098288 -57.29636054 127.29350362 -56.88147449 125.36489296 C-55.87356645 120.67968695 -54.84642505 116.0018124 -53.71899414 111.34375 C-49.59273022 97.39637937 -49.59273022 97.39637937 -51.02923584 83.61453247 C-54.24515807 79.21165575 -58.33459746 76.68732392 -63 74 C-68.15374521 69.23605518 -71.44006882 63.1320957 -74.84277344 57.06518555 C-77.01775215 53.01942429 -77.01775215 53.01942429 -81 51 Z M-245.984375 180.53515625 C-247.39472212 181.95557727 -248.70856219 183.47066575 -250 185 C-248.84698802 189.7561744 -246.1245455 191.86452898 -242.52734375 194.86328125 C-239.51831739 197.40723398 -236.63540438 200.06770897 -233.75 202.75 C-232.623843 203.7931254 -231.49753968 204.83609286 -230.37109375 205.87890625 C-229.81019043 206.39855957 -229.24928711 206.91821289 -228.67138672 207.45361328 C-222.50688635 213.15708178 -216.31492125 218.83048997 -210.0625 224.4375 C-205.60713196 228.43517373 -201.20916481 232.49200885 -196.81665039 236.55834961 C-193.56634649 239.56396073 -190.29702925 242.54551924 -187 245.5 C-183.13337433 248.96489833 -179.30986214 252.47304568 -175.5 256 C-170.87380193 260.28227279 -166.21321325 264.52207859 -161.51953125 268.73046875 C-156.12401811 273.59061314 -150.78769551 278.51636534 -145.44287109 283.43212891 C-144.92934082 283.90440918 -144.41581055 284.37668945 -143.88671875 284.86328125 C-143.12186157 285.56686768 -143.12186157 285.56686768 -142.34155273 286.28466797 C-140.84088368 287.66145935 -139.33469199 289.03201286 -137.828125 290.40234375 C-136.00331169 292.0784499 -134.19931065 293.7776392 -132.421875 295.50390625 C-131.25398438 296.61572266 -131.25398438 296.61572266 -130.0625 297.75 C-129.39347656 298.40484375 -128.72445312 299.0596875 -128.03515625 299.734375 C-126.03453976 301.22873288 -126.03453976 301.22873288 -123.421875 300.98828125 C-120.27371353 299.70362826 -119.64762745 298.47363802 -118.1875 295.4375 C-117.76855469 294.61121094 -117.34960938 293.78492188 -116.91796875 292.93359375 C-115.75635618 289.22137655 -115.35850692 285.82919397 -116 282 C-117.65916624 279.5790988 -119.02329497 277.9438431 -121.10546875 275.97045898 C-121.64857193 275.4245813 -122.19167511 274.87870361 -122.75123596 274.31628418 C-124.54485728 272.52313634 -126.36522861 270.76007953 -128.1875 268.99609375 C-129.44796293 267.74803121 -130.70672727 266.49825109 -131.96386719 265.24684143 C-135.27727558 261.95827048 -138.61440731 258.69481664 -141.95672607 255.43566895 C-145.3318598 252.13504081 -148.68183891 248.80909012 -152.03515625 245.48632812 C-165.29448594 232.23097339 -165.29448594 232.23097339 -179.16156006 219.62693787 C-182.75368662 216.44806507 -186.08151424 212.99871561 -189.4453125 209.58203125 C-191.03241857 207.98228941 -192.61966222 206.38268405 -194.20703125 204.78320312 C-196.67528898 202.29008064 -199.14190095 199.79537119 -201.60595703 197.2980957 C-204.00632121 194.86748284 -206.41290624 192.44316662 -208.8203125 190.01953125 C-209.55170441 189.27467972 -210.28309631 188.52982819 -211.03665161 187.7624054 C-216.86330055 181.90740859 -221.71905792 177.84020935 -230 176 C-235.68178607 176 -241.39035098 176.98111798 -245.984375 180.53515625 Z " fill="#000000" transform="translate(290,27)"/>
<path d="M0 0 C3.42123173 2.47493359 4.79477021 3.88263781 5.5625 8.0625 C4.84617651 11.80330044 3.98566878 12.64386758 1 15 C-1.88462428 16.19665106 -4.85597364 16.96508745 -7.875 17.75 C-8.77105957 17.99314941 -9.66711914 18.23629883 -10.59033203 18.48681641 C-12.59644262 19.02916314 -14.6042057 19.56542163 -16.61328125 20.09667969 C-19.67935927 20.91447731 -22.73857169 21.75427659 -25.79586792 22.60424805 C-28.48687912 23.35126927 -31.18022255 24.08962679 -33.87408447 24.82629395 C-35.19909919 25.18964941 -36.52345377 25.55542151 -37.84710693 25.92370605 C-39.72639139 26.44488257 -41.60925266 26.95310742 -43.4921875 27.4609375 C-44.57870605 27.75790527 -45.66522461 28.05487305 -46.78466797 28.36083984 C-50.29757645 29.05915377 -53.42707485 29.22226511 -57 29 C-59.71604883 27.07017583 -60.74692606 25.65799225 -61.9375 22.5625 C-62.02419803 19.00788074 -61.33669799 17.69074314 -59 15 C-53.0885134 12.5194971 -47.01475903 10.77822679 -40.83984375 9.08203125 C-39.41678673 8.68886971 -39.41678673 8.68886971 -37.96498108 8.2877655 C-35.97127233 7.73871915 -33.97699376 7.19173816 -31.98217773 6.64672852 C-28.94058975 5.81334658 -25.9029582 4.96648374 -22.86523438 4.11914062 C-20.91949894 3.58510569 -18.97354255 3.05187505 -17.02734375 2.51953125 C-15.67551247 2.13991997 -15.67551247 2.13991997 -14.29637146 1.75263977 C-9.43544514 0.441134 -5.08209529 -0.48259814 0 0 Z " fill="#000000" transform="translate(375,260)"/>
<path d="M0 0 C3 2.0625 3 2.0625 5 5 C5 8.43173021 4.90046399 10.79809471 2.80395508 13.59643555 C0.37505044 15.48624104 -1.89079332 16.0427291 -4.86328125 16.83203125 C-6.05034668 17.15300781 -7.23741211 17.47398437 -8.46044922 17.8046875 C-9.73162598 18.13726562 -11.00280273 18.46984375 -12.3125 18.8125 C-13.62279393 19.16187903 -14.93285123 19.51214663 -16.24267578 19.86328125 C-18.23223143 20.39607658 -20.2220529 20.9276905 -22.21307373 21.45498657 C-26.34265514 22.54909307 -30.45810932 23.68411844 -34.56640625 24.85546875 C-36.04790161 25.27445435 -36.04790161 25.27445435 -37.55932617 25.7019043 C-39.38541871 26.21950566 -41.20992 26.74276728 -43.0324707 27.27270508 C-47.79677471 28.6039832 -52.00060858 29.4294349 -57 29 C-59.71604883 27.07017583 -60.74692606 25.65799225 -61.9375 22.5625 C-62.02322709 19.04768947 -61.26314574 17.68748556 -59 15 C-53.44412473 12.26890709 -47.68542455 10.67318555 -41.71875 9.08203125 C-40.74643433 8.81992355 -39.77411865 8.55781586 -38.77233887 8.2877655 C-36.72574335 7.73803914 -34.6784041 7.19107498 -32.63037109 6.64672852 C-29.50724114 5.81442973 -26.38839643 4.96726171 -23.26953125 4.11914062 C-21.27368094 3.58502701 -19.2775947 3.05179403 -17.28125 2.51953125 C-16.35501831 2.26645706 -15.42878662 2.01338287 -14.4744873 1.75263977 C-9.55763001 0.46117782 -5.12909301 -0.48239465 0 0 Z " fill="#000000" transform="translate(329,214)"/>
<path d="M0 0 C3 2.0625 3 2.0625 5 5 C5 8.43173021 4.90046399 10.79809471 2.80395508 13.59643555 C0.37505044 15.48624104 -1.89079332 16.0427291 -4.86328125 16.83203125 C-6.05034668 17.15300781 -7.23741211 17.47398437 -8.46044922 17.8046875 C-9.73162598 18.13726562 -11.00280273 18.46984375 -12.3125 18.8125 C-13.62279393 19.16187903 -14.93285123 19.51214663 -16.24267578 19.86328125 C-18.23223143 20.39607658 -20.2220529 20.9276905 -22.21307373 21.45498657 C-26.34265514 22.54909307 -30.45810932 23.68411844 -34.56640625 24.85546875 C-36.04790161 25.27445435 -36.04790161 25.27445435 -37.55932617 25.7019043 C-39.38541871 26.21950566 -41.20992 26.74276728 -43.0324707 27.27270508 C-47.79559944 28.6036548 -52.0019643 29.43572619 -57 29 C-59.44053024 27.20171456 -60.63399544 25.81043868 -61.875 23.0625 C-62.05132235 20.15318125 -61.43082215 18.53645745 -60 16 C-55.3589507 12.46979609 -49.79423941 11.34865797 -44.2578125 9.86328125 C-42.69521194 9.43682564 -42.69521194 9.43682564 -41.1010437 9.00175476 C-38.90156586 8.40385154 -36.70102528 7.80984591 -34.49951172 7.21948242 C-31.14075702 6.31673508 -27.78713102 5.39652457 -24.43359375 4.47460938 C-22.29195401 3.89477097 -20.1500356 3.31596067 -18.0078125 2.73828125 C-17.00968536 2.46333328 -16.01155823 2.18838531 -14.98318481 1.90510559 C-9.8575722 0.54497531 -5.30730905 -0.5309037 0 0 Z " fill="#000000" transform="translate(352,237)"/>
<path d="M0 0 C4.32392389 2.25555337 6.80619854 4.98775568 8.9296875 9.31640625 C10.38344867 14.72038741 10.25039053 19.37292829 8.01953125 24.5234375 C5.61439487 28.48027477 2.32311422 30.85193068 -2.0703125 32.31640625 C-8.04532972 32.85117543 -12.9827986 32.82921347 -18.0703125 29.31640625 C-21.95480047 25.21611339 -23.81101858 21.6068359 -24.4453125 16.00390625 C-23.84835129 10.13378767 -21.78235259 5.94493219 -17.5078125 1.87890625 C-12.33972733 -1.43396886 -5.83599746 -1.92698029 0 0 Z " fill="#000000" transform="translate(366.0703125,315.68359375)"/>
</svg>
